<svg xmlns="http://www.w3.org/2000/svg" viewBox="0 0 150 150" fill="none">
  <g transform="translate(23 0)">
    <path d="M103.943 54.1353V28.7594L51.9715 0L18.7438 18.3865V58.0827H18.7107L18.7107 81.3878C18.7107 81.3878 19.0603 98.753 30.8596 113.609C32.6363 115.846 34.5625 117.928 36.5531 119.85L44.8429 115.361C42.4297 113.22 40.1009 110.843 38.0358 108.243C33.0936 102.02 30.3289 95.079 28.8135 89.5415C28.2844 87.6079 28.1287 85.889 28.0014 84.4838C27.9483 83.897 27.9001 83.3649 27.8317 82.8947V23.6842L51.9715 10.7143L94.2871 34.3985L94.5711 54.1353H103.943Z" fill="#5E16A7"/>
    <path d="M85.1991 54.1353V40.0376L51.9715 20.8647L33.7957 31.297V42.0113L51.9715 31.8609L75.8272 45.1128V54.1353H85.1991Z" fill="#5E16A7"/>
    <path d="M0 28.7594L9.37191 23.5741V84.8684C9.64593 86.9409 9.94668 88.9015 10.2839 90.7685C10.5715 92.0922 10.9389 93.5898 11.406 95.2709C13.2704 101.981 17.0001 111.494 22.7198 118.421C25.5868 121.893 28.9119 125.377 32.3373 128.495C32.5661 128.425 32.7979 128.353 33.032 128.281L33.0326 128.281C33.9473 127.999 34.8954 127.707 35.8202 127.446C43.5966 125.255 48.0207 122.082 53.5551 118.113C54.0583 117.753 54.5706 117.385 55.0955 117.011C58.3065 114.724 61.2607 112.39 63.7688 109.962H76.129C72.757 115.253 67.9125 121.269 61.3407 125.95C46.3007 136.662 32.0917 139.85 32.0917 139.85H32.0602C26.4373 135.991 20.4593 130.896 15.3358 124.342C15.305 124.305 15.2742 124.267 15.2435 124.23C10.819 118.908 7.53902 113.213 5.06635 106.222C1.13068 95.7472 0.40579 86.6971 0.299914 84.9857L0.283997 84.8684L0 65.1316V28.7594Z" fill="#5E16A7"/>
    <path d="M41.7738 145.219L41.7476 145.207C42.8876 144.703 44.0006 144.206 45.0879 143.715L46.0267 143.289C52.5659 140.309 58.1609 137.499 63.0857 134.433C68.6623 130.802 74.4087 126.24 79.2352 120.395C83.6312 115.071 87.1415 109.436 89.5622 104.041H68.7273L73.8393 94.4549H102.239C102.035 96.6781 100.128 103.465 96.5334 110.991C92.3054 120.338 86.8105 127.472 78.9874 133.844C66.4554 144.319 51.9715 150 51.9715 150C51.9715 150 47.5536 148.633 41.3482 145.412L41.7738 145.219Z" fill="#5E16A7"/>
  </g>
</svg>
